<svg xmlns="http://www.w3.org/2000/svg" viewBox="0 0 50 50">
  <path d="M14 2C8.414063 2 3.6875 3.65625 3.6875 3.65625C3.222656 3.804688 2.929688 4.265625 3 4.75C3 4.75 3.585938 8.484375 5.46875 12.25C6.410156 14.132813 7.6875 16.027344 9.4375 17.5C11.1875 18.972656 13.441406 20 16.15625 20C18.402344 20 19.90625 19.59375 19.90625 19.59375C20.441406 19.445313 20.757813 18.894531 20.609375 18.359375C20.460938 17.824219 19.910156 17.507813 19.375 17.65625C19.375 17.65625 18.164063 18 16.15625 18C13.925781 18 12.175781 17.226563 10.71875 16C9.261719 14.773438 8.109375 13.0625 7.25 11.34375C5.878906 8.605469 5.386719 6.320313 5.1875 5.3125C6.257813 4.976563 9.589844 4 14 4C18.371094 4 20.867188 5.859375 22.125 8.28125C23.183594 10.320313 23.273438 12.828125 22.5625 14.96875C21.359375 13.59375 19.992188 12.371094 18.625 11.3125C15.023438 8.523438 11.4375 6.84375 11.4375 6.84375C11.253906 6.753906 11.046875 6.71875 10.84375 6.75C10.398438 6.804688 10.042969 7.152344 9.980469 7.597656C9.914063 8.039063 10.152344 8.472656 10.5625 8.65625C10.5625 8.65625 13.976563 10.242188 17.375 12.875C20.773438 15.507813 24 19.128906 24 22.875L24 25C23.996094 25.042969 23.996094 25.082031 24 25.125C24 25.1875 24 25.25 24 25.3125L24 26L11 26C10.96875 26 10.9375 26 10.90625 26C10.390625 26.046875 9.996094 26.480469 10 27L10 33C10 33.550781 10.449219 34 11 34L12.1875 34L15.03125 47.21875C15.132813 47.671875 15.535156 47.996094 16 48L34 48C34.464844 47.996094 34.867188 47.671875 34.96875 47.21875L37.8125 34L39 34C39.550781 34 40 33.550781 40 33L40 27C40 26.449219 39.550781 26 39 26L26 26L26 25.3125C26 25.257813 26 25.207031 26 25.15625C26.003906 25.105469 26.003906 25.050781 26 25C26.082031 23.433594 26.800781 22.050781 27.90625 20.78125C29.085938 19.425781 30.71875 18.257813 32.375 17.3125C35.6875 15.421875 39.03125 14.46875 39.03125 14.46875C39.574219 14.363281 39.933594 13.839844 39.828125 13.296875C39.722656 12.753906 39.199219 12.394531 38.65625 12.5C38.59375 12.503906 38.53125 12.515625 38.46875 12.53125C38.46875 12.53125 34.9375 13.527344 31.375 15.5625C30.675781 15.960938 29.988281 16.421875 29.3125 16.90625C29.417969 16.121094 29.613281 15.160156 30.03125 14.1875C30.957031 12.042969 32.675781 10 37 10C41.324219 10 43.902344 10.898438 44.8125 11.25C44.601563 12.132813 44.136719 13.800781 42.96875 15.8125C41.417969 18.492188 38.96875 21 34.84375 21C32.429688 21 30.84375 20.25 30.84375 20.25C30.519531 20.085938 30.128906 20.113281 29.828125 20.320313C29.527344 20.523438 29.363281 20.878906 29.398438 21.242188C29.433594 21.605469 29.664063 21.917969 30 22.0625C30 22.0625 32.007813 23 34.84375 23C39.808594 23 42.9375 19.835938 44.6875 16.8125C46.4375 13.789063 46.96875 10.78125 46.96875 10.78125C47.054688 10.332031 46.824219 9.878906 46.40625 9.6875C46.40625 9.6875 42.585938 8 37 8C31.992188 8 29.328125 10.761719 28.1875 13.40625C27.046875 16.050781 27.1875 18.625 27.1875 18.625C27.1875 18.636719 27.1875 18.644531 27.1875 18.65625C26.921875 18.917969 26.652344 19.1875 26.40625 19.46875C26.140625 19.773438 25.890625 20.105469 25.65625 20.4375C25.316406 19.15625 24.746094 17.9375 24 16.8125C25.390625 13.914063 25.449219 10.320313 23.90625 7.34375C22.324219 4.292969 18.964844 2 14 2 Z M 12 28L38 28L38 32L12 32 Z M 14.21875 34L35.78125 34L33.1875 46L16.8125 46Z" fill="#059669" />
</svg>