<svg xmlns="http://www.w3.org/2000/svg" viewBox="0 0 50 50">
  <path d="M25 1C19.466667 1 15 5.4666667 15 11L15 13L7.1074219 13L7.0058594 13.886719L2.8789062 50L15.832031 50 A 1.0001 1.0001 0 0 0 16.158203 50L24.832031 50 A 1.0001 1.0001 0 0 0 25.158203 50L33.832031 50 A 1.0001 1.0001 0 0 0 34.158203 50L47.121094 50L42.892578 13L35 13L35 11C35 5.4666667 30.533333 1 25 1 z M 25 3C29.466667 3 33 6.5333333 33 11L33 13L17 13L17 11C17 6.5333333 20.533333 3 25 3 z M 8.8925781 15L15 15L15 17.271484 A 2 2 0 0 0 14 19 A 2 2 0 0 0 16 21 A 2 2 0 0 0 18 19 A 2 2 0 0 0 17 17.269531L17 15L33 15L33 17.271484 A 2 2 0 0 0 32 19 A 2 2 0 0 0 34 21 A 2 2 0 0 0 36 19 A 2 2 0 0 0 35 17.269531L35 15L41.107422 15L44.878906 48L35 48L35 32L25.154297 32 A 1.0001 1.0001 0 0 0 24.984375 31.986328 A 1.0001 1.0001 0 0 0 24.839844 32L15 32L15 48L5.1210938 48L8.8925781 15 z M 17 34L24 34L24 48L17 48L17 34 z M 26 34L33 34L33 48L26 48L26 34 z M 21 40 A 1 1 0 0 0 20 41 A 1 1 0 0 0 21 42 A 1 1 0 0 0 22 41 A 1 1 0 0 0 21 40 z M 29 40 A 1 1 0 0 0 28 41 A 1 1 0 0 0 29 42 A 1 1 0 0 0 30 41 A 1 1 0 0 0 29 40 z" fill="#15131F" />
</svg>