<svg id="user-tick_linear" data-name="user-tick/linear" xmlns="http://www.w3.org/2000/svg" width="24" height="24" viewBox="0 0 24 24">
  <g id="vuesax_linear_user-tick" data-name="vuesax/linear/user-tick">
    <g id="user-tick">
      <path id="Vector" d="M10,5A5,5,0,1,1,5,0,5,5,0,0,1,10,5Z" transform="translate(7 2)" fill="none" stroke="#6b7280" stroke-linecap="round" stroke-linejoin="round" stroke-width="1.5"/>
      <path id="Vector-2" data-name="Vector" d="M0,7C0,3.13,3.85,0,8.59,0a10.391,10.391,0,0,1,2.76.37" transform="translate(3.41 15)" fill="none" stroke="#6b7280" stroke-linecap="round" stroke-linejoin="round" stroke-width="1.5"/>
      <g id="Group">
        <path id="Vector-3" data-name="Vector" d="M8,4a3.921,3.921,0,0,1-.58,2.06A3.593,3.593,0,0,1,6.63,7,3.905,3.905,0,0,1,4,8,3.97,3.97,0,0,1,.58,6.06,3.921,3.921,0,0,1,0,4,4,4,0,0,1,8,4Z" transform="translate(14 14)" fill="none" stroke="#6b7280" stroke-linecap="round" stroke-linejoin="round" stroke-width="1.5"/>
        <path id="Vector-4" data-name="Vector" d="M0,.98l.99.99L3.12,0" transform="translate(16.44 17.02)" fill="none" stroke="#6b7280" stroke-linecap="round" stroke-linejoin="round" stroke-width="1.5"/>
      </g>
      <path id="Vector-5" data-name="Vector" d="M0,0H24V24H0Z" fill="none" opacity="0"/>
    </g>
  </g>
</svg>
